%TF.GenerationSoftware,KiCad,Pcbnew,7.0.1*%
%TF.CreationDate,2023-05-06T23:45:57+02:00*%
%TF.ProjectId,PUE_mainboard,5055455f-6d61-4696-9e62-6f6172642e6b,rev?*%
%TF.SameCoordinates,Original*%
%TF.FileFunction,Soldermask,Bot*%
%TF.FilePolarity,Negative*%
%FSLAX46Y46*%
G04 Gerber Fmt 4.6, Leading zero omitted, Abs format (unit mm)*
G04 Created by KiCad (PCBNEW 7.0.1) date 2023-05-06 23:45:57*
%MOMM*%
%LPD*%
G01*
G04 APERTURE LIST*
%ADD10C,3.000000*%
%ADD11C,1.100000*%
%ADD12C,1.600000*%
%ADD13R,1.800000X1.800000*%
%ADD14C,1.800000*%
%ADD15R,3.000000X3.000000*%
%ADD16C,2.350000*%
%ADD17C,2.400000*%
%ADD18C,1.700000*%
%ADD19C,0.900000*%
%ADD20C,8.600000*%
%ADD21R,2.000000X1.905000*%
%ADD22O,2.000000X1.905000*%
%ADD23R,2.000000X2.000000*%
%ADD24C,2.000000*%
%ADD25R,1.700000X1.700000*%
%ADD26O,1.700000X1.700000*%
%ADD27C,3.500000*%
%ADD28C,6.000000*%
%ADD29O,1.600000X1.600000*%
G04 APERTURE END LIST*
D10*
%TO.C,TR1*%
X124160000Y-169940000D03*
X140160000Y-169940000D03*
X137160000Y-154940000D03*
X127160000Y-154940000D03*
%TD*%
D11*
%TO.C,J8*%
X192025000Y-161450000D03*
D12*
X192025000Y-140450000D03*
%TD*%
D13*
%TO.C,D5*%
X183860000Y-104800000D03*
D14*
X186400000Y-104800000D03*
%TD*%
D15*
%TO.C,J1*%
X72850000Y-188600000D03*
D10*
X72850000Y-183520000D03*
X72850000Y-178440000D03*
%TD*%
D16*
%TO.C,F2*%
X134620000Y-134620000D03*
X132080000Y-132080000D03*
X137160000Y-132080000D03*
X134620000Y-129540000D03*
X134620000Y-119300000D03*
X132080000Y-116760000D03*
X137160000Y-116760000D03*
X134620000Y-114220000D03*
%TD*%
D17*
%TO.C,R31*%
X160550000Y-182600000D03*
X155550000Y-182600000D03*
%TD*%
%TO.C,SW2*%
X170660002Y-93650000D03*
X177660002Y-93650000D03*
D18*
X171910002Y-91150000D03*
X176410002Y-91150000D03*
%TD*%
D19*
%TO.C,H3*%
X206975000Y-91825000D03*
X207919581Y-89544581D03*
X207919581Y-94105419D03*
X210200000Y-88600000D03*
D20*
X210200000Y-91825000D03*
D19*
X210200000Y-95050000D03*
X212480419Y-89544581D03*
X212480419Y-94105419D03*
X213425000Y-91825000D03*
%TD*%
%TO.C,H2*%
X206894581Y-195519581D03*
X207839162Y-193239162D03*
X207839162Y-197800000D03*
X210119581Y-192294581D03*
D20*
X210119581Y-195519581D03*
D19*
X210119581Y-198744581D03*
X212400000Y-193239162D03*
X212400000Y-197800000D03*
X213344581Y-195519581D03*
%TD*%
D16*
%TO.C,F3*%
X84020000Y-111825000D03*
X81480000Y-109285000D03*
X86560000Y-109285000D03*
X84020000Y-106745000D03*
X84020000Y-96505000D03*
X81480000Y-93965000D03*
X86560000Y-93965000D03*
X84020000Y-91425000D03*
%TD*%
D19*
%TO.C,H4*%
X69400000Y-143850000D03*
X70344581Y-141569581D03*
X70344581Y-146130419D03*
X72625000Y-140625000D03*
D20*
X72625000Y-143850000D03*
D19*
X72625000Y-147075000D03*
X74905419Y-141569581D03*
X74905419Y-146130419D03*
X75850000Y-143850000D03*
%TD*%
D15*
%TO.C,J2*%
X72850000Y-172150000D03*
D10*
X72850000Y-167070000D03*
X72850000Y-161990000D03*
%TD*%
D21*
%TO.C,U3*%
X147320000Y-104140000D03*
D22*
X147320000Y-106680000D03*
X147320000Y-109220000D03*
%TD*%
D13*
%TO.C,D6*%
X194460000Y-104800000D03*
D14*
X197000000Y-104800000D03*
%TD*%
D23*
%TO.C,T3*%
X96920000Y-99260000D03*
D24*
X96920000Y-104260000D03*
X96920000Y-119260000D03*
X96920000Y-124260000D03*
X121920000Y-124260000D03*
X121920000Y-119260000D03*
X121920000Y-111760000D03*
X121920000Y-104260000D03*
X121920000Y-99260000D03*
%TD*%
D17*
%TO.C,SW1*%
X159710000Y-93650000D03*
X166710000Y-93650000D03*
D18*
X160960000Y-91150000D03*
X165460000Y-91150000D03*
%TD*%
D23*
%TO.C,C12*%
X137160000Y-93980000D03*
D24*
X132160000Y-93980000D03*
%TD*%
D17*
%TO.C,SW3*%
X181610004Y-93650000D03*
X188610004Y-93650000D03*
D18*
X182860004Y-91150000D03*
X187360004Y-91150000D03*
%TD*%
D17*
%TO.C,SW5*%
X192560006Y-93650000D03*
X199560006Y-93650000D03*
D18*
X193810006Y-91150000D03*
X198310006Y-91150000D03*
%TD*%
D13*
%TO.C,D4*%
X172725000Y-104800000D03*
D14*
X175265000Y-104800000D03*
%TD*%
D25*
%TO.C,J9*%
X154080000Y-120500000D03*
D26*
X151540000Y-120500000D03*
X149000000Y-120500000D03*
X146460000Y-120500000D03*
%TD*%
D25*
%TO.C,J7*%
X174000000Y-133200000D03*
D26*
X176540000Y-133200000D03*
X179080000Y-133200000D03*
X181620000Y-133200000D03*
X184160000Y-133200000D03*
%TD*%
D19*
%TO.C,H1*%
X68894581Y-91919581D03*
X69839162Y-89639162D03*
X69839162Y-94200000D03*
X72119581Y-88694581D03*
D20*
X72119581Y-91919581D03*
D19*
X72119581Y-95144581D03*
X74400000Y-89639162D03*
X74400000Y-94200000D03*
X75344581Y-91919581D03*
%TD*%
D15*
%TO.C,J3*%
X73860000Y-109220000D03*
D10*
X73860000Y-114300000D03*
%TD*%
D13*
%TO.C,D1*%
X161460000Y-104800000D03*
D14*
X164000000Y-104800000D03*
%TD*%
D25*
%TO.C,J4*%
X188600000Y-184800000D03*
D18*
X186100000Y-184800000D03*
X186100000Y-186800000D03*
X188600000Y-186800000D03*
D27*
X193370000Y-189510000D03*
X181330000Y-189510000D03*
%TD*%
D24*
%TO.C,C19*%
X160200000Y-170350000D03*
X150200000Y-170350000D03*
%TD*%
D25*
%TO.C,J10*%
X142200000Y-140825000D03*
D26*
X142200000Y-138285000D03*
X142200000Y-135745000D03*
X142200000Y-133205000D03*
X142200000Y-130665000D03*
X142200000Y-128125000D03*
X142200000Y-125585000D03*
%TD*%
D28*
%TO.C,F1*%
X146150000Y-182600000D03*
X87750000Y-182600000D03*
%TD*%
D10*
%TO.C,SW4*%
X86417500Y-122062500D03*
X76417500Y-122062500D03*
X86417500Y-132062500D03*
X76417500Y-132062500D03*
%TD*%
D12*
%TO.C,R7*%
X127840000Y-148500000D03*
D29*
X148160000Y-148500000D03*
%TD*%
D17*
%TO.C,T2*%
X109100000Y-155122500D03*
X94100000Y-155122500D03*
X94100000Y-170122500D03*
X109100000Y-170122500D03*
D28*
X86850000Y-162622500D03*
X116350000Y-162622500D03*
%TD*%
M02*
