M48
; DRILL file {KiCad 7.0.1} date Sat May  6 23:46:42 2023
; FORMAT={-:-/ absolute / metric / decimal}
; #@! TF.CreationDate,2023-05-06T23:46:42+02:00
; #@! TF.GenerationSoftware,Kicad,Pcbnew,7.0.1
; #@! TF.FileFunction,Plated,1,2,PTH
FMAT,2
METRIC
; #@! TA.AperFunction,Plated,PTH,ViaDrill
T1C0.300
; #@! TA.AperFunction,Plated,PTH,ViaDrill
T2C0.400
; #@! TA.AperFunction,Plated,PTH,ComponentDrill
T3C0.600
; #@! TA.AperFunction,Plated,PTH,ComponentDrill
T4C0.800
; #@! TA.AperFunction,Plated,PTH,ComponentDrill
T5C0.900
; #@! TA.AperFunction,Plated,PTH,ComponentDrill
T6C0.920
; #@! TA.AperFunction,Plated,PTH,ComponentDrill
T7C1.000
; #@! TA.AperFunction,Plated,PTH,ComponentDrill
T8C1.100
; #@! TA.AperFunction,Plated,PTH,ComponentDrill
T9C1.200
; #@! TA.AperFunction,Plated,PTH,ComponentDrill
T10C1.350
; #@! TA.AperFunction,Plated,PTH,ComponentDrill
T11C1.500
; #@! TA.AperFunction,Plated,PTH,ComponentDrill
T12C1.520
; #@! TA.AperFunction,Plated,PTH,ComponentDrill
T13C2.330
; #@! TA.AperFunction,Plated,PTH,ComponentDrill
T14C2.500
; #@! TA.AperFunction,Plated,PTH,ComponentDrill
T15C4.300
%
G90
G05
T1
X104.648Y-150.876
X106.5Y-148.575
X110.475Y-148.875
X112.5Y-141.351
X113.284Y-151.003
X113.862Y-141.238
X114.13Y-143.07
X144.9Y-123.275
X145.175Y-125.55
X147.55Y-123.25
X148.125Y-125.45
X150.2Y-123.025
X151.137Y-144.188
X151.565Y-143.435
X153.075Y-152.5
X153.85Y-142.0
X154.1Y-152.05
X154.107Y-155.1
X154.306Y-152.889
X154.5Y-143.654
X154.625Y-146.675
X155.35Y-146.0
X155.35Y-147.35
X155.5Y-143.681
X155.775Y-145.125
X155.9Y-140.525
X156.275Y-154.275
X156.4Y-155.4
X156.649Y-146.649
X156.649Y-148.978
X156.85Y-148.049
X157.0Y-145.241
X158.0Y-144.0
X158.725Y-145.75
X159.149Y-153.298
X159.5Y-152.15
X159.628Y-144.903
X160.14Y-149.0
X161.525Y-140.0
X164.075Y-153.7
X164.575Y-144.875
X165.575Y-141.625
X167.05Y-124.15
X167.7Y-141.625
X168.65Y-153.7
X170.022Y-138.422
X173.025Y-160.15
X173.025Y-163.55
X173.075Y-135.775
X175.35Y-135.825
X177.825Y-135.775
X180.05Y-135.525
X180.06Y-181.374
X183.15Y-141.6
X185.0Y-141.625
X186.5Y-113.0
X186.625Y-141.875
X187.225Y-147.85
X187.325Y-143.525
X188.0Y-153.0
X188.0Y-158.5
X188.31Y-182.477
X188.5Y-134.4
X191.99Y-184.748
X199.175Y-126.475
X200.525Y-98.2
X200.55Y-111.275
T2
X94.45Y-151.75
X97.65Y-155.225
X98.775Y-150.525
X101.6Y-137.16
X104.14Y-142.24
X106.05Y-153.475
X107.7Y-143.65
X107.95Y-136.525
X112.95Y-149.0
X113.8Y-137.75
X116.205Y-137.91
X119.38Y-152.4
X121.92Y-146.05
X124.46Y-91.44
X124.46Y-96.52
X124.46Y-101.6
X124.46Y-111.76
X124.46Y-116.84
X124.46Y-121.92
X124.46Y-127.0
X124.46Y-132.08
X124.46Y-137.16
X124.46Y-152.4
X124.475Y-140.05
X129.54Y-91.44
X129.54Y-96.52
X129.54Y-101.6
X129.54Y-106.68
X129.54Y-111.76
X129.54Y-116.84
X129.54Y-127.0
X129.54Y-132.08
X129.54Y-137.16
X129.54Y-147.32
X129.54Y-152.4
X132.95Y-144.3
X134.62Y-91.44
X134.62Y-96.52
X134.62Y-101.6
X134.62Y-106.68
X134.62Y-111.76
X134.62Y-121.92
X134.62Y-127.0
X134.62Y-152.4
X135.5Y-139.95
X139.525Y-144.4
X139.7Y-91.44
X139.7Y-96.52
X139.7Y-106.68
X139.7Y-111.76
X140.1Y-148.45
X144.78Y-91.44
X144.78Y-96.52
X144.78Y-101.6
X144.78Y-116.84
X144.78Y-152.4
X145.09Y-140.46
X145.25Y-155.55
X145.75Y-143.3
X147.2Y-143.75
X149.86Y-91.44
X149.86Y-96.52
X149.86Y-101.6
X149.86Y-106.68
X149.86Y-111.76
X149.86Y-116.84
X149.86Y-129.54
X149.86Y-132.08
X149.86Y-152.4
X154.94Y-91.44
X154.94Y-96.52
X154.94Y-101.6
X154.94Y-106.68
X154.94Y-111.76
X154.94Y-116.84
X154.94Y-130.81
X160.02Y-96.52
X160.02Y-101.6
X160.02Y-116.84
X160.02Y-121.92
X160.02Y-127.0
X162.45Y-113.05
X164.775Y-151.225
X165.1Y-96.52
X165.1Y-101.6
X165.1Y-116.84
X165.1Y-121.92
X165.1Y-127.0
X165.1Y-132.08
X168.0Y-151.35
X168.4Y-90.925
X170.18Y-91.44
X170.18Y-96.52
X170.18Y-101.6
X170.18Y-106.68
X170.18Y-111.76
X170.18Y-116.84
X172.512Y-154.862
X172.95Y-113.05
X174.15Y-127.2
X174.65Y-148.55
X175.075Y-157.425
X175.26Y-101.6
X175.26Y-116.84
X176.53Y-163.195
X178.55Y-124.05
X178.875Y-111.325
X179.11Y-167.202
X179.65Y-124.675
X179.7Y-157.4
X179.9Y-155.1
X180.34Y-91.44
X180.34Y-96.52
X182.06Y-167.278
X182.245Y-185.42
X182.245Y-193.04
X182.245Y-197.485
X182.88Y-106.68
X182.88Y-111.76
X184.65Y-167.275
X185.42Y-91.44
X185.42Y-116.84
X185.42Y-161.29
X187.96Y-193.04
X187.96Y-197.485
X190.5Y-91.3
X190.5Y-96.52
X190.5Y-101.6
X190.5Y-106.68
X190.5Y-111.76
X190.5Y-116.84
X190.5Y-121.92
X190.5Y-127.0
X193.04Y-137.16
X193.04Y-167.64
X193.04Y-185.42
X193.04Y-193.04
X193.04Y-197.485
X194.31Y-177.8
X195.58Y-101.6
X195.58Y-111.76
X195.58Y-116.84
X195.58Y-121.92
X196.325Y-91.075
X198.12Y-132.08
X198.12Y-137.16
X198.12Y-162.56
X198.12Y-167.64
X203.2Y-91.44
X203.2Y-96.52
X203.2Y-101.6
X203.2Y-106.68
X203.2Y-111.76
X203.2Y-116.84
X203.2Y-121.92
X203.2Y-127.0
X203.2Y-132.08
X203.2Y-137.16
X203.2Y-142.24
X203.2Y-147.32
X203.2Y-152.4
X203.2Y-157.48
X203.2Y-162.56
X203.2Y-167.64
X208.28Y-96.52
X208.28Y-101.6
X208.28Y-106.68
X208.28Y-111.76
X208.28Y-116.84
X208.28Y-121.92
X208.28Y-127.0
X208.28Y-132.08
X208.28Y-137.16
X208.28Y-142.24
X208.28Y-147.32
X208.28Y-152.4
X208.28Y-157.48
X208.28Y-162.56
X208.28Y-167.64
X213.36Y-96.52
X213.36Y-101.6
X213.36Y-106.68
X213.36Y-111.76
X213.36Y-116.84
X213.36Y-127.0
X213.36Y-132.08
X213.36Y-142.24
X213.36Y-147.32
X213.36Y-152.4
X213.36Y-157.48
X213.36Y-167.64
T3
X68.895Y-91.92
X69.4Y-143.85
X69.839Y-89.639
X69.839Y-94.2
X70.345Y-141.57
X70.345Y-146.13
X72.12Y-88.695
X72.12Y-95.145
X72.625Y-140.625
X72.625Y-147.075
X74.4Y-89.639
X74.4Y-94.2
X74.905Y-141.57
X74.905Y-146.13
X75.345Y-91.92
X75.85Y-143.85
X206.895Y-195.52
X206.975Y-91.825
X207.839Y-193.239
X207.839Y-197.8
X207.92Y-89.545
X207.92Y-94.105
X210.12Y-192.295
X210.12Y-198.745
X210.2Y-88.6
X210.2Y-95.05
X212.4Y-193.239
X212.4Y-197.8
X212.48Y-89.545
X212.48Y-94.105
X213.345Y-195.52
X213.425Y-91.825
T4
X127.84Y-148.5
X148.16Y-148.5
T5
X96.92Y-99.26
X96.92Y-104.26
X96.92Y-119.26
X96.92Y-124.26
X121.92Y-99.26
X121.92Y-104.26
X121.92Y-111.76
X121.92Y-119.26
X121.92Y-124.26
X161.46Y-104.8
X164.0Y-104.8
X172.725Y-104.8
X175.265Y-104.8
X183.86Y-104.8
X186.4Y-104.8
X194.46Y-104.8
X197.0Y-104.8
T6
X186.1Y-184.8
X186.1Y-186.8
X188.6Y-184.8
X188.6Y-186.8
T7
X124.16Y-169.94
X127.16Y-154.94
X132.16Y-93.98
X137.16Y-93.98
X137.16Y-154.94
X140.16Y-169.94
X142.2Y-125.585
X142.2Y-128.125
X142.2Y-130.665
X142.2Y-133.205
X142.2Y-135.745
X142.2Y-138.285
X142.2Y-140.825
X146.46Y-120.5
X149.0Y-120.5
X150.2Y-170.35
X151.54Y-120.5
X154.08Y-120.5
X160.2Y-170.35
X160.96Y-91.15
X165.46Y-91.15
X171.91Y-91.15
X174.0Y-133.2
X176.41Y-91.15
X176.54Y-133.2
X179.08Y-133.2
X181.62Y-133.2
X182.86Y-91.15
X184.16Y-133.2
X187.36Y-91.15
X193.81Y-91.15
X198.31Y-91.15
T8
X94.1Y-155.123
X94.1Y-170.123
X109.1Y-155.123
X109.1Y-170.123
X147.32Y-104.14
X147.32Y-106.68
X147.32Y-109.22
T9
X155.55Y-182.6
X160.55Y-182.6
T10
X81.48Y-93.965
X81.48Y-109.285
X84.02Y-91.425
X84.02Y-96.505
X84.02Y-106.745
X84.02Y-111.825
X86.56Y-93.965
X86.56Y-109.285
X132.08Y-116.76
X132.08Y-132.08
X134.62Y-114.22
X134.62Y-119.3
X134.62Y-129.54
X134.62Y-134.62
X137.16Y-116.76
X137.16Y-132.08
T11
X76.417Y-122.062
X76.417Y-132.062
X86.417Y-122.062
X86.417Y-132.062
X159.71Y-93.65
X166.71Y-93.65
X170.66Y-93.65
X177.66Y-93.65
X181.61Y-93.65
X188.61Y-93.65
X192.56Y-93.65
X199.56Y-93.65
T12
X72.85Y-161.99
X72.85Y-167.07
X72.85Y-172.15
X72.85Y-178.44
X72.85Y-183.52
X72.85Y-188.6
X73.86Y-109.22
X73.86Y-114.3
T13
X181.33Y-189.51
X193.37Y-189.51
T14
X86.85Y-162.623
X87.75Y-182.6
X116.35Y-162.623
X146.15Y-182.6
T15
X72.12Y-91.92
X72.625Y-143.85
X210.12Y-195.52
X210.2Y-91.825
T0
M30
